<svg width="900" height="720" viewBox="0 0 900 720" fill="none" xmlns="http://www.w3.org/2000/svg">
<path d="M403.5 64.6C395.2 65.3 382.4 66.6 375 67.4C367.6 68.3 359.2 69.4 356.5 69.9C353.7 70.4 348.8 71.3 345.5 71.9C342.2 72.5 335.9 73.9 331.5 75C327.1 76.1 323.4 77.5 323.2 78C323.1 78.6 322.2 79 321.3 79C320.3 79 317.7 80.2 315.5 81.7C313.3 83.2 310.9 84.9 310.2 85.5C309.5 86 306.4 89 303.4 92C300.4 95 296.2 100.4 294.1 104C292.1 107.6 289.8 112.5 289.1 115C288.4 117.5 287.5 121.3 287 123.5C286.5 125.7 286.1 129.9 286 132.8C286 136.9 285.5 138.4 283.8 140C282.5 141.1 280.6 142.3 279.5 142.7C278.4 143 277.3 143.5 277 143.9C276.7 144.2 274.7 145.5 272.5 146.8C270.3 148.1 267.7 149.3 266.8 149.6C265.8 149.8 265 150.4 265 151C265 151.6 264.3 152 263.5 152C262.7 152 262 152.4 262 153C262 153.6 261.3 154 260.5 154C259.7 154 257.6 155.3 256 157L253 160C253 215.8 253.2 219.3 254.8 222C255.8 223.8 259.7 226.8 264.9 229.7C269.6 232.4 275.8 235.8 278.7 237.5C281.6 239.2 284.5 241.2 285 242C285.5 242.8 286 245.8 286 248.5C286.1 251.3 286.5 255.3 287 257.5C287.5 259.7 288.4 263.5 289 266C289.6 268.5 290.4 270.7 290.8 271C291.2 271.3 292.6 273.7 294 276.4C295.4 279.1 297.7 282.7 299.2 284.4C300.7 286.1 302 287.8 302 288.3C302 288.7 305.7 291.8 310.3 295.1C314.8 298.5 319.6 301.7 321 302.1C322.4 302.6 324.4 303.4 325.5 303.9C326.6 304.4 328.7 305.3 330.3 305.9C331.8 306.5 335.4 307.3 338.3 307.6C341.1 307.9 345 308.6 346.8 309.1C348.5 309.6 350 310.3 350 310.8C350 311.2 348.1 312.1 345.8 312.8C343.4 313.6 340.1 314.8 338.5 315.5C336.9 316.2 332.8 317.8 329.5 319C326.2 320.2 321.9 321.8 320 322.7C318.1 323.5 310.4 327.2 303 330.9C295.6 334.5 289.1 337.8 288.5 338.3C287.9 338.7 283.7 341.3 279 344.1C274.3 347 270 350 269.3 350.9C268.7 351.8 266.2 356.3 263.8 361C261.4 365.7 259.2 369.7 258.9 370C258.6 370.3 254.7 377.9 250.3 387C245.8 396.1 240.1 407.9 237.6 413.3C235.1 418.6 233 423.3 233 423.8C233 424.2 231.9 426.8 230.5 429.5C229.1 432.3 228 435.2 228 436C228 436.8 227.6 437.9 227.1 438.5C226.7 439.1 225 442.6 223.6 446.5C222.1 450.4 220.5 454.4 220.1 455.5C219.6 456.6 218.8 458.6 218.3 460C217.7 461.4 216.1 465.6 214.7 469.5C213.3 473.4 211.4 479 210.5 482C209.6 485 208.4 488.5 207.9 489.8C207.4 491 206.6 493 206.1 494.3C205.6 495.5 204 500.6 202.5 505.5C201.1 510.5 199.2 517 198.4 520C197.5 523 196.4 526.4 196 527.5C195.5 528.6 194.7 531.5 194.1 534C193.6 536.5 192.2 542.1 191 546.5C189.8 550.9 188.4 556.8 187.8 559.5C187.3 562.3 187 567.4 187.3 571C187.6 575.4 188.6 578.9 190.3 582C191.7 584.5 194.7 588.2 196.9 590.3C199.2 592.3 203.1 595 205.7 596.1C208.4 597.3 212.7 598.5 215.5 598.8C218.2 599.1 222.7 598.7 225.5 598.1C228.2 597.4 232.7 595.4 235.5 593.7C238.2 592 240.7 590.3 241 590C241.3 589.7 243.3 588.1 245.4 586.4C247.6 584.8 250.3 582.6 251.4 581.5C252.6 580.4 255 578.4 256.8 577C258.6 575.6 261.1 573.7 262.3 572.7C263.5 571.7 267.6 568.1 271.5 564.7C275.3 561.3 280.6 556.5 283.4 554C286.1 551.5 292.1 545.8 296.6 541.3C301.2 536.7 305.4 533 306 533C306.6 533 307.4 534.7 308 536.8C308.5 538.8 309 541.5 309 542.8C309 544 309.3 545.2 309.7 545.4C310.2 545.6 310.8 547.5 311.2 549.6C311.6 551.8 313 558.2 314.4 564C315.7 569.8 317.5 576.8 318.3 579.5C319.1 582.3 321.2 588.1 323 592.5C324.8 596.9 327.1 601.7 328.2 603.3C329.2 604.8 330 606.3 330 606.8C330 607.2 331.5 609.8 333.2 612.5C335 615.3 337.3 618.7 338.4 620.1C339.6 621.6 341.9 624.5 343.5 626.5C345.1 628.6 348.1 632 350 634C351.9 636 356.7 640.3 360.6 643.6C364.5 646.8 369 650.4 370.5 651.5C372.1 652.6 374.3 654 375.4 654.7C376.6 655.3 382.5 658.4 388.5 661.4C394.5 664.5 400.2 667 401 667C401.8 667 403 667.4 403.5 667.9C404 668.4 407.4 669.5 411 670.3C414.6 671.2 420.2 672.4 423.5 672.9C426.8 673.5 432.4 674.4 436 675C439.6 675.5 444.7 676 447.5 676C450.2 676 456.1 675.5 460.5 674.9C464.9 674.4 472.1 673.2 476.5 672.4C480.9 671.5 487.9 669.7 492 668.4C496.1 667 503.5 663.9 508.5 661.4C513.5 658.9 518.4 656.4 519.5 655.7C520.6 655 524.4 652.5 528 650C531.6 647.6 539 641.1 544.5 635.5C550.9 629.2 557 621.8 561.1 615.5C564.7 610 569.3 602.1 571.3 598C573.3 593.9 575.2 589.1 575.6 587.5C576 585.9 576.6 584 577 583.5C577.3 583 578.2 580.7 578.9 578.5C579.6 576.3 581 570.5 582.1 565.5C583.2 560.5 584.8 553.6 585.6 550C586.4 546.4 587.4 541.9 587.9 540C588.4 538.1 589.1 535.4 589.6 534.1C590.5 531.9 591 532.3 601.5 542.5C607.5 548.4 615.8 556.2 619.9 559.8C624 563.5 627.8 567 628.4 567.5C629 568 631.1 569.9 633 571.5C635 573.1 638.6 576.1 641 578C643.4 579.9 647.2 583 649.4 584.8C651.7 586.6 654.2 588.7 655 589.4C655.8 590.1 657.4 591.1 658.5 591.7C659.6 592.3 661.2 593.4 662 594.2C662.8 595 666.1 596.4 669.2 597.3C672.4 598.3 676.7 599 678.7 599C680.8 599 684.7 598.3 687.5 597.4C690.2 596.6 693.9 594.9 695.5 593.8C697.1 592.6 700 590.2 701.7 588.3C703.5 586.5 706 582.9 707.2 580.3C708.8 576.6 709.3 573.7 709.3 567.5C709.3 561.8 708.3 556.1 706 547.5C704.3 540.9 702.6 534.1 702.3 532.5C702 530.9 701.4 529 701 528.5C700.6 528 699.9 525.9 699.6 524C699.2 522.1 698.5 519.6 698.1 518.5C697.6 517.4 696.7 514.5 696 512C695.3 509.5 694.1 505.3 693.2 502.5C692.4 499.8 691.4 496.6 690.9 495.5C690.5 494.4 688.2 487.9 686 481C683.7 474.1 681.5 467.6 681 466.5C680.6 465.4 679.5 462.8 678.6 460.8C677.7 458.7 677 456.7 677 456.3C677 455.8 676.1 453.6 675 451.3C673.9 448.9 673 446.6 673 446C673 445.4 672.6 444.2 672 443.3C671.5 442.3 670.5 439.9 669.7 438C668.9 436.1 667.3 432.5 666.2 430C665.1 427.5 662.8 421.9 660.9 417.5C659.1 413.1 657.3 409.4 656.8 409.3C656.4 409.1 656 408.3 656 407.5C656 406.7 655.6 405.2 655 404.3C654.5 403.3 651.2 396.6 647.7 389.5C644.2 382.4 638.5 371.1 635 364.5C631.6 357.9 627.6 351.3 626.1 349.9C624.7 348.5 619.1 344.8 613.7 341.7C608.4 338.6 603.5 336 603 336C602.5 336 601.9 335.6 601.7 335.2C601.6 334.8 596.8 332.1 591 329.3C585.2 326.5 576.2 322.6 571 320.5C565.8 318.5 560.6 316.4 559.5 316C558.4 315.5 555.2 314.4 552.5 313.5C549.7 312.6 546.8 311.5 546 311C544.7 310.4 544.8 310.1 546.5 309.2C547.6 308.7 551.6 307.8 555.4 307.4C559.1 306.9 562.4 306.2 562.6 305.8C562.8 305.3 564.1 305 565.5 305C566.9 305 568.2 304.6 568.5 304C568.8 303.4 569.8 303 570.7 303C571.7 303 574.9 301.8 577.7 300.5C580.6 299.1 583 297.6 583 297C583 296.4 583.8 295.8 584.7 295.6C585.7 295.3 588.8 292.9 591.5 290.3C594.3 287.7 598.4 282.6 600.6 279C602.8 275.4 605.2 271.1 605.9 269.5C606.7 267.9 607.7 265.6 608.2 264.5C608.7 263.4 609.6 257.8 610.3 252.1L611.5 241.6C625.5 233.4 632 229.6 635 228C638.1 226.3 641.3 223.7 642.2 222C643.8 219.3 644 215.9 644 190.3C643.9 169.6 643.6 160.9 642.7 159.3C642 158.1 638.4 155.1 634.5 152.8C630.6 150.4 624 146.5 619.7 144C614.8 141.2 611.7 138.8 611.5 137.5C611.3 136.4 610.6 131.6 610 126.8C609.5 121.9 608.6 117.2 608.1 116.3C607.6 115.3 605.6 111.2 603.6 107.3C601.6 103.3 598.8 98.6 597.2 96.8C595.7 95.1 593.6 92.7 592.5 91.5C591.4 90.3 587.6 87.3 584 84.8C580.4 82.2 575 79.2 572 78C569 76.8 561.8 75 556 73.9C550.2 72.9 543.2 71.6 540.5 71.1C537.7 70.6 532.6 69.7 529 69.1C525.4 68.5 517.5 67.5 511.5 66.9C505.5 66.4 492.4 65.3 482.5 64.5C472.6 63.7 454.1 63.1 441.5 63.2C428.9 63.2 411.7 63.8 403.5 64.6ZM716.5 85.6C713.7 86.3 710.4 87.5 709 88.2C707.6 88.9 704.9 90.6 703 92C701.1 93.4 698.7 95.2 697.7 96C696.7 96.8 694.1 100 692.1 103C690 106 687.5 110.8 686.4 113.5C684.7 118.1 684.5 123 684 182.4L683.5 246.3C656.4 260.3 644.2 266.5 639 269.2C633.8 271.9 628.7 275.1 627.7 276.3C626.7 277.6 626 280.1 626 282.3C626 284.7 626.8 286.9 628.2 288.5C629.5 289.9 633.6 292.6 637.5 294.6C641.4 296.6 652.8 302.5 663 307.8C673.2 313 682.1 317.6 682.7 318.1C683.7 318.8 684.1 327.5 684.3 354.3C684.5 384.7 684.8 390.1 686.3 394C687.2 396.5 688.6 399.6 689.3 401C689.9 402.4 691.2 404.3 692 405.4C692.8 406.5 695.6 409.4 698.1 411.9C700.6 414.4 704.7 417.6 707.1 418.9C709.5 420.2 713.7 421.9 716.5 422.6C720.4 423.7 732 424 769 424C807.9 424 817.5 423.7 822 422.5C825 421.7 829.9 419.5 832.9 417.8C835.8 416 840.2 412.2 842.7 409.5C845.1 406.7 848.2 402.2 849.4 399.5C850.7 396.7 852.2 391.8 852.8 388.5C853.5 385.2 854.5 380.5 855 378C855.6 375.5 856.4 371.2 856.9 368.5C857.3 365.7 858.7 356.1 859.9 347C861.1 337.9 862.5 328.2 863.1 325.5C863.6 322.7 864.5 311.1 865.2 299.5C865.9 287.9 866.5 267.9 866.5 255C866.5 242.1 865.9 222.1 865.2 210.5C864.5 198.9 863.5 186.8 863 183.5C862.5 180.2 860.7 168.1 859 156.5C857.4 144.9 855.6 133.5 855.1 131C854.5 128.5 853.6 123.8 853 120.5C852.4 117.2 850.8 112 849.4 109C847.9 106 845.3 101.7 843.5 99.5C841.7 97.3 837.8 93.8 834.9 91.7C831.8 89.5 826.5 87.1 822.5 86C816 84.1 812.4 84 768.5 84.1C732 84.2 720.4 84.5 716.5 85.6Z" fill="#2E323B"/>
<path d="M419.5 319.1C413.5 319.6 404.2 320.7 399 321.6C393.8 322.5 386.6 323.8 383 324.5C379.4 325.2 374.9 326.3 373 326.8C371.1 327.4 366.8 328.5 363.5 329.4C360.2 330.2 353.5 332.3 348.5 334C343.6 335.7 338.6 337.5 337.5 337.9C336.4 338.4 332.4 340.1 328.5 341.6C324.6 343.2 321.3 344.7 321 345.1C320.7 345.5 319.1 346.2 317.5 346.6C315.9 347 314.3 347.6 314 347.9C313.7 348.2 311.7 349.4 309.5 350.6C307.3 351.7 302.8 354.1 299.5 356C296.2 357.8 292.5 359.9 291.2 360.7C289.4 361.8 289.1 362.6 289.6 365.2C289.9 367 290.5 369.4 291 370.5C291.4 371.6 292.3 375 293 378C293.6 381 295 387.5 296.1 392.5C297.2 397.4 298.5 403.1 299 405C299.5 406.9 300.6 411.4 301.4 415C302.1 418.6 304 426.9 305.5 433.5C307 440.1 308.6 447.2 309.1 449.2C309.6 451.3 310.4 454.7 310.9 456.7C311.4 458.8 313 465.9 314.5 472.5C316 479.1 317.9 487.4 318.7 491C319.5 494.6 320.5 499.1 321 501C321.5 502.9 322.8 508.5 323.9 513.5C325 518.5 326.4 525 327 528C327.7 531 328.6 534.4 329 535.5C329.5 536.6 330.3 540 330.9 543C331.4 546 332.5 551.4 333.4 555C334.3 558.6 335.7 564.6 336.6 568.5C337.6 572.3 338.9 576.6 339.6 578C340.4 579.4 341 581 341 581.5C341 582 342.2 585 343.6 588C345.1 591 347.9 596.2 349.9 599.5C351.8 602.8 353.9 606 354.5 606.6C355 607.2 356.8 609.5 358.4 611.6C360 613.7 365.2 619.2 369.9 623.8C374.6 628.3 379.1 632 379.8 632C380.4 632 381.3 632.6 381.8 633.3C382.2 634 384.1 635.6 386 636.7C387.9 637.9 392.9 640.5 397 642.7C401.1 644.8 406.1 647 408 647.7C409.9 648.3 414.4 649.6 418 650.5C421.6 651.4 426.1 652.6 428 653.2C430 653.8 438.6 654.3 447.5 654.3C457.4 654.3 465.6 653.8 469 653C472 652.3 477.6 650.8 481.5 649.8C485.4 648.7 490.5 646.9 493 645.8C495.5 644.7 499.1 643 501 642C502.9 641 506.1 639.4 508 638.5C509.9 637.5 511.7 636.4 512 636.1C512.3 635.8 515 633.6 518 631.4C521 629.1 526.1 624.6 529.3 621.4C532.5 618.2 535.9 614.6 536.9 613.5C537.9 612.4 540 609.7 541.6 607.5C543.2 605.3 544.8 603.3 545.1 603C545.4 602.7 546.4 601 547.3 599.2C548.2 597.5 549.6 594.8 550.4 593.2C551.2 591.7 553.2 587.6 554.8 584C556.4 580.4 558.7 573.7 560 569C561.2 564.3 562.8 557.4 563.6 553.5C564.4 549.6 565.5 544.9 566 543C566.5 541.1 567.4 537.2 568 534.5C568.6 531.7 570 525.7 571.1 521C572.2 516.3 573.5 510.9 574 509C574.6 507.1 575.4 503.2 575.9 500.5C576.4 497.7 577.4 493.7 578 491.5C578.6 489.3 579.7 484.6 580.4 481C581.2 477.4 583 469.1 584.5 462.5C586 455.9 587.4 449.4 587.7 448C587.9 446.6 588.5 444.6 589 443.5C589.4 442.4 591.2 435 593 427C594.7 419 596.7 409.6 597.5 406C598.3 402.4 600.2 393.4 601.9 386C603.6 378.6 605.4 371.1 606 369.5C606.5 367.9 607 365.4 607 364C607 361.9 605.7 360.8 598.8 356.9C594.2 354.3 587.6 350.8 584 349C580.4 347.2 576.4 345.1 575 344.4C573.6 343.7 569.8 342.2 566.5 341C563.2 339.7 560 338.4 559.5 337.9C559 337.4 557.9 337 557.2 337C556.6 337 554.5 336.4 552.7 335.6C551 334.8 546.6 333.3 543 332.1C539.4 331 534.7 329.6 532.5 329.1C530.3 328.6 526.7 327.6 524.5 327C522.3 326.4 517.4 325.2 513.5 324.4C509.6 323.6 502.5 322.3 497.5 321.6C492.5 320.8 482.4 319.6 475 319.1C467.6 318.5 454.5 318.1 446 318.1C437.5 318.2 425.5 318.7 419.5 319.1Z" fill="#E55998"/>
<path d="M406 85.1C400.2 85.6 390.8 86.5 385 87.1C379.2 87.7 372 88.6 369 89C366 89.5 360.1 90.4 356 91C351.9 91.5 344.7 93 340 94.2C335.3 95.3 329.7 97.4 327.5 98.8C325.3 100.2 322.8 102 322 102.7C321.2 103.4 319.1 105.5 317.3 107.3C315.5 109 312.7 113.2 311.1 116.5C309.4 119.8 307.6 125 307 128C306.4 131.4 306 155.4 306 190.5C306 225.6 306.4 249.6 307 253C307.6 256 309.4 261.2 311 264.5C312.7 267.8 315.7 272.2 317.8 274.3C319.8 276.5 323.8 279.7 326.5 281.5C329.3 283.3 333.1 285.1 335 285.4C336.9 285.8 339.4 286.5 340.5 287C341.6 287.5 347 288.5 352.5 289.3C358 290.2 366.5 291.4 371.5 292C376.5 292.6 383.2 293.5 386.5 294.1C389.8 294.6 404 295.5 418 296C433.4 296.5 454 296.5 470 296C484.6 295.4 499.4 294.6 503 294C506.6 293.5 515.4 292.3 522.5 291.4C529.6 290.5 539.1 289.2 543.5 288.4C547.9 287.7 554.3 286.5 557.8 285.8C561.2 285.1 564 284.2 564 283.8C564 283.3 564.7 283 565.5 283C566.3 283 569.4 281.4 572.3 279.4C575.1 277.4 579.1 273.7 581 271.2C582.9 268.7 585.2 265 586.1 263C587 261.1 588.3 257.9 588.9 256C589.7 253.6 590 233.3 590 189.2C590 148.1 589.7 125.8 589 125.5C588.5 125.2 588 123.9 588 122.5C588 121.1 587.7 120 587.3 120C586.8 120 586.2 118.7 585.8 117C585.3 115.4 582.2 111.1 578.8 107.5C575.3 103.9 572.2 101 571.8 101C571.3 101 569.8 100.1 568.3 99.1C566.7 98 562.8 96.5 559.5 95.7C556.2 94.9 551.3 93.7 548.5 93.1C545.8 92.6 540.6 91.8 537 91.5C533.4 91.1 528.9 90.4 527 90C525.1 89.5 519.7 88.6 515 88C510.3 87.4 497.3 86.3 486 85.5C474.7 84.7 454.5 84.1 441 84.1C427.5 84.2 411.8 84.7 406 85.1ZM722 105.3C720.1 106 716.8 107.6 714.8 108.8C712.7 110 711 111.3 711 111.8C711 112.2 710.2 113.4 709.3 114.5C708.3 115.6 706.9 117.7 706.2 119.3C705.3 121.4 705 137.5 705 188C705 242.2 704.8 254.5 703.6 256.8C702.9 258.3 699.8 260.8 696.9 262.5C693.9 264.1 684.8 268.9 676.5 273C666.3 278.2 661.5 281.1 661.5 282.2C661.5 283.4 666.6 286.5 677.5 292.1C686.3 296.6 694.9 301 696.5 301.8C698.1 302.7 700.6 304.5 702 305.9L704.5 308.4C705.3 374.4 705.9 388.3 706.6 390C707.3 391.4 709.3 394.1 711.2 396C713 397.9 716.3 400.4 718.5 401.5C722.3 403.4 724.8 403.5 767 403.8C799 404 812.6 403.8 815.5 402.9C817.7 402.3 821.3 400.5 823.5 399C826.1 397.3 828.5 394.4 830.2 390.9C831.7 387.9 833.1 383.9 833.5 382C833.8 380.1 834.7 374.9 835.5 370.5C836.2 366.1 837.3 359.6 838 356C838.6 352.4 839.6 346.4 840.1 342.5C840.7 338.6 841.8 329 842.6 321C843.3 313 844.5 298.2 845.1 288C845.7 276.8 845.9 257.5 845.6 239C845.2 222.2 844.5 205.8 844 202.5C843.5 199.2 842.6 191.1 842 184.5C841.4 177.9 840.5 169.8 840 166.5C839.6 163.2 838.7 157.6 838.1 154C837.5 150.4 836.4 143.7 835.6 139C834.8 134.3 833.7 128.5 833.2 126C832.7 123.5 831.6 119.9 830.7 118C829.9 116.1 827.9 113.1 826.4 111.4C824.8 109.7 820.9 107.4 817.8 106.2C812.2 104.1 810.7 104 768.8 104C737 104.1 724.6 104.4 722 105.3ZM281.5 164.7C280.4 164.9 279.6 165.6 279.8 166.1C279.9 166.6 279.4 167 278.7 167C278.1 167 276.5 167.9 275.2 169C273.1 170.9 273 171.6 273 190.3C272.9 207.4 273.1 209.7 274.7 211.2C275.7 212.2 277.1 213 277.7 213C278.4 213 279.1 213.4 279.2 214C279.4 214.5 281 215.3 282.8 215.7L286 216.5C286 169.9 285.7 164 284.7 164.1C284.1 164.2 282.6 164.4 281.5 164.7ZM611 190C611 204.3 611.3 216.2 611.7 216.4C612.2 216.7 614.9 215.6 617.7 213.9L623 211V170C615.6 165.4 612.9 164 612.2 164C611.3 164 611 169.9 611 190ZM271.8 390.8C271 391.7 268.9 395.4 267.2 399C265.6 402.6 261.7 410.9 258.6 417.5C255.5 424.1 252.5 430.3 252 431.3C251.4 432.2 251 433.6 251 434.3C251 434.9 249.9 437.8 248.5 440.5C247.2 443.3 245.1 448 244 451C242.8 454 241.3 457.9 240.6 459.5C239.8 461.1 238.1 465.6 236.7 469.5C235.3 473.4 233.4 478.8 232.5 481.5C231.6 484.3 230.6 487.2 230.1 488C229.7 488.8 228.9 491.1 228.5 493C228.1 494.9 227.4 496.9 227.1 497.5C226.7 498.1 225.1 502.5 223.6 507.5C222.1 512.5 220.4 518.1 219.8 520C219.2 521.9 218.4 524.4 217.9 525.5C217.5 526.6 216.8 529.1 216.5 531C216.1 532.9 215 537.2 214 540.5C213 543.8 211.4 550.1 210.4 554.5C209.5 558.9 208.3 563 207.8 563.5C207.4 564 207 565.5 207 566.8C207 568 207.6 570.2 208.4 571.8C209.1 573.3 210.4 575 211.1 575.7C211.9 576.4 213.9 577.4 215.5 577.9C217.9 578.6 219.5 578.4 223.7 576.4C226.6 575.1 229 573.7 229 573.3C229 572.8 230.7 571.4 232.7 570C234.7 568.6 236.8 567 237.4 566.5C238 566 241.6 563 245.5 559.8C249.4 556.7 253.9 552.9 255.5 551.3C257.2 549.8 263 544.5 268.5 539.5C273.9 534.5 280.7 528.2 283.4 525.5C286.2 522.7 291.3 517.3 294.8 513.5C298.7 509.2 301.1 505.6 301 504.3C301 503 300.5 501.8 300 501.5C299.4 501.2 298.8 499.3 298.6 497.3C298.4 495.2 297.7 491.3 297 488.5C296.4 485.8 295 479.7 293.9 475C292.8 470.3 291.5 464.9 291 463C290.4 461.1 289.6 457.3 289.1 454.5C288.5 451.8 287 444.6 285.5 438.5C284.1 432.4 282.5 425.5 281.9 423C281.4 420.5 280.3 415.6 279.5 412C278.7 408.4 277.7 403.7 277.2 401.5C276.7 399.3 275.8 395.6 275.3 393.3C274.7 390.9 274 389 273.8 389C273.5 389 272.6 389.8 271.8 390.8ZM621.7 393.8C620.9 396.4 619.9 400.5 619.5 403C619.2 405.5 618.5 408.4 618.1 409.5C617.6 410.6 616.5 414.6 615.7 418.5C614.9 422.4 613.2 430 612 435.5C610.8 441 608.9 449.1 607.8 453.5C606.8 457.9 604.8 466.4 603.5 472.5C602.1 478.6 600.5 485.3 600 487.5C599.4 489.7 598.3 494.9 597.5 499C596.7 503.1 596.4 507 596.7 507.5C597 508 598.3 509.6 599.6 511C600.9 512.4 606.9 518.5 612.9 524.5C618.9 530.5 626.2 537.8 629.2 540.5C632.2 543.3 637.3 547.8 640.5 550.7C643.8 553.5 647.9 556.9 649.5 558.1C651.1 559.4 652.7 560.7 653 561.1C653.3 561.5 658.1 565.4 663.8 569.9C672.9 577.1 674.5 578 678.3 578C681.4 578.1 683.3 577.4 685.5 575.5C688.2 573.2 688.5 572.5 688.4 567.3C688.4 564.1 687.1 556.5 685.6 550.5C684 544.5 682.2 537.7 681.5 535.5C680.8 533.3 679.5 528.8 678.5 525.5C677.5 522.2 675.9 516.6 674.8 513C673.7 509.4 672.5 505.6 672 504.5C671.5 503.4 670.8 500.9 670.4 499C670 497.1 669.4 494.8 669 494C668.6 493.2 667.8 491.4 667.2 490C666.6 488.6 664.7 483 662.9 477.5C661.1 472 659.3 467.1 659 466.5C658.6 465.9 656.8 461.7 655 457C653.3 452.3 651.2 447.1 650.5 445.5C649.7 443.9 648.1 440 646.7 437C645.4 434 643.9 430.4 643.5 429C643.1 427.6 641.5 424 639.9 421C638.4 418 636.1 413.3 634.9 410.5C633.7 407.8 631.9 403.8 630.9 401.8C629.8 399.7 628.1 396.2 627 394C625.9 391.8 624.6 389.8 624.1 389.5C623.6 389.2 622.6 391.2 621.7 393.8Z" fill="#E6E6E6"/>
<path d="M378.5 142.6C376.9 142.9 374.6 143.4 373.5 143.9C372.4 144.3 368.8 146 365.5 147.6C362 149.3 357 153 353.5 156.5C349.9 160.1 346.2 165.2 344.3 169C342.2 173.2 340.6 178.2 340 183C339.3 188.1 339.3 192.8 340 197.8C340.5 201.8 342.3 207.8 343.9 211.3C345.7 215 349.2 219.9 352.8 223.5C356 226.8 360.5 230.4 362.6 231.5C364.7 232.6 366.6 233.8 366.7 234.3C366.9 234.7 367.9 235 369 235C370.1 235 371.2 235.3 371.4 235.8C371.6 236.2 375.3 237.1 379.6 237.9C386.2 239.1 388.8 239.1 395 238.1C399.1 237.4 402.9 236.4 403.4 235.9C404 235.4 405.2 235 406.2 235C407.2 235 408.1 234.7 408.2 234.3C408.4 233.8 410.2 232.6 412.4 231.5C414.5 230.4 418.8 227 421.9 223.9C425 220.8 428.5 216.3 429.7 213.9C430.9 211.5 432.7 207.3 433.7 204.5C434.8 201.2 435.4 196.4 435.4 190.5C435.4 184.6 434.8 179.8 433.7 176.5C432.7 173.8 430.9 169.5 429.7 167C428.5 164.6 424.8 159.8 421.5 156.5C418 153.1 412.9 149.3 409.5 147.6C406.2 146 402.7 144.3 401.7 143.8C400.8 143.4 395.8 142.8 390.7 142.6C385.7 142.4 380.1 142.4 378.5 142.6ZM500.5 142.6C498.9 142.9 496.6 143.4 495.5 143.9C494.4 144.4 491 145.8 488.1 147.1C484.7 148.6 480.2 151.9 476.5 155.5C473.2 158.8 469.7 162.5 468.7 163.8C467.8 165 467 166.2 467 166.5C467 166.8 466.3 168.7 465.4 170.8C464.5 172.8 463.3 175.6 462.6 176.9C462 178.3 461.5 184.1 461.5 190.5C461.5 196.9 462 202.7 462.7 204.1C463.3 205.4 464.7 208.5 465.8 211C466.9 213.5 469.6 217.9 471.9 220.8C474.2 223.7 478.9 227.9 482.7 230.3C486.5 232.6 491.7 235.4 494.5 236.3C497.2 237.3 502 238.3 505 238.7C508 239 513.4 238.8 517 238.1C520.6 237.4 526 235.7 529 234.2C532 232.8 536.1 230.5 538 229.2C539.9 227.9 543.1 225.1 545 223.1C546.9 221 549.8 216.7 551.4 213.4C553 210.2 554.6 206.6 555 205.5C555.5 204.4 556.3 201.9 556.9 200C557.5 198.1 558 193.7 558 190.3C558 186.2 557.1 181.4 555.5 176.8C554.1 172.8 551.5 167.1 549.7 164.1C548 161.1 543.8 156.4 540.4 153.6C536.9 150.7 531.3 147.3 527.4 145.7C522.3 143.7 518.3 142.9 512 142.6C507.3 142.4 502.1 142.4 500.5 142.6ZM742 164.7C741.2 165.1 739.7 166.3 738.7 167.4C737.7 168.6 736.6 170.4 736.3 171.5C736 172.6 736.1 174.7 736.4 176.3C736.7 177.8 738.2 180.1 739.7 181.5L742.5 184H807C812.7 178.9 813.2 177.8 813.1 174C813.1 170.3 812.6 169 810.1 166.8L807 164C757.8 164.1 742.8 164.4 742 164.7ZM742 244.7C741.2 245.1 739.5 246.5 738.3 247.9C737 249.3 736 251.7 736 253.3C736 254.8 736.5 257 737.2 258.3C737.8 259.5 739.3 261.3 740.4 262.2C742.3 263.8 745.8 263.9 775 264H807.5C812.6 259.1 813.2 257.6 813.2 254C813.2 250.2 812.7 249.1 810.1 246.8L807 244C757.8 244.1 742.8 244.4 742 244.7ZM739 327.1C737.1 329.2 736 331.3 736 333.1C736 334.7 736.5 337 737 338.2C737.6 339.5 739.4 341.3 741 342.2C743.7 343.8 747.3 344 775.5 344H807C812.6 339 813.1 337.8 813.1 334C813.1 330.4 812.6 329 810.3 326.7L807.5 324H742L739 327.1ZM407.5 354.5C407 354.7 400.9 355.4 394 355.9C387.1 356.5 377.7 357.4 373 357.9C368.3 358.4 362.3 359.5 359.5 360.4C356.8 361.4 353.2 362.8 351.5 363.7C349.9 364.5 346.9 366.4 345 367.8C343.1 369.2 340.5 371.5 339.2 372.9C337.9 374.3 335.4 377.5 333.7 380C332 382.4 329.6 387.4 328.3 391C326.7 395.8 326.1 399.7 326.1 406C326.1 410.6 326.8 418.1 327.6 422.5C328.5 426.9 329.8 433.8 330.5 438C331.2 442.1 332.3 447.9 332.9 451C333.4 454 335.1 462.8 336.6 470.5C338 478.2 339.6 486.9 340.1 490C340.6 493 341.5 497.9 342.1 501C342.7 504 343.6 508.5 344.2 511C344.7 513.4 345.8 517.9 346.5 521C347.3 524 349.1 528.5 350.4 531C351.8 533.4 354.9 537.6 357.2 540.3C359.6 543 364 546.6 367 548.5C370 550.3 374.5 552.5 377 553.3C379.5 554.1 384.4 555.2 388 555.9C391.6 556.5 400.7 557.6 408.3 558.5C416.3 559.3 431.5 560 444.8 560C457.5 560 474.3 559.3 483 558.5C491.5 557.6 501.7 556.5 505.5 555.9C509.4 555.3 515 554.1 518 553.2C521 552.3 524.4 551.1 525.5 550.5C526.6 549.9 528.9 548.6 530.5 547.5C532.2 546.4 535.5 543.5 538 541C540.5 538.4 543.3 535.4 544.3 534.2C545.2 532.9 546.9 530 547.9 527.7C548.9 525.4 550.1 522.6 550.4 521.5C550.7 520.4 551.9 514.5 553.1 508.5C554.3 502.4 555.6 495.7 556 493.5C556.5 491.3 557.6 485.6 558.4 481C559.2 476.3 560.4 469.8 561 466.5C561.6 463.2 562.8 456.6 563.7 452C564.5 447.3 565.6 441.4 566.2 439C566.7 436.5 567.8 430.6 568.6 426C569.5 421.3 570.4 413.9 570.7 409.5C571.1 404 570.7 399.2 569.6 394.2C568.7 390.2 567.7 386.9 567.3 386.9C566.9 386.9 565.6 385 564.5 382.7C563.5 380.4 559.8 375.8 556.5 372.5C553.1 369.2 548 365.3 545 363.8C542 362.3 538.2 360.7 536.5 360.1C534.9 359.5 528.8 358.5 523 357.8C517.2 357.2 508.5 356.3 503.5 355.8C498.6 355.3 475.2 354.7 451.5 354.5C427.9 354.2 408.1 354.2 407.5 354.5Z" fill="#2E323B"/>
<path d="M381.5 163.4C378.7 164.1 375.1 165.5 373.5 166.5C371.9 167.6 369.3 169.6 367.9 171C366.4 172.4 364.1 175.6 362.6 178.2C360.5 182.1 360 184.3 360 190C360 193.8 360.4 197.8 360.9 198.7C361.3 199.7 362.5 202.1 363.6 204C364.6 205.9 366.8 208.8 368.5 210.4C370.1 212 373.9 214.4 376.7 215.7C380.2 217.2 383.9 218 387.5 218C391.167 218 394.733 217.2 398.2 215.6C401.1 214.3 405.2 211.6 407.2 209.6C409.3 207.6 411 205.3 411 204.5C411 203.7 411.5 203 412 203C412.5 203 413 202.1 413 201C413 199.9 413.5 198.8 414 198.5C414.5 198.2 415 194.8 415 191C415 185.5 414.4 182.9 412.4 178.7C411 175.9 408.9 172.6 407.7 171.5C406.5 170.4 403.9 168.4 402 167C400.1 165.7 396.1 164 393.2 163.3C390.3 162.6 387.6 162 387.2 162.1C386.8 162.2 384.3 162.8 381.5 163.4ZM501.5 163.9C496.6 165.2 494.5 166.5 489.9 171C485.1 175.8 484.2 177.3 482.6 183.5C481 190 481 191 482.5 196.5C483.3 199.8 485.3 204.2 486.8 206.4C488.3 208.5 490.2 210.6 491 211C491.8 211.4 493.2 212.4 494 213.2C494.8 213.9 497.8 215.4 500.5 216.4C503.9 217.7 507.2 218.1 511 217.8C514 217.6 518.5 216.4 521 215.3C523.5 214.1 526.6 212 528 210.7C529.4 209.4 531.2 207.5 532 206.4C532.8 205.3 534.3 202.2 535.2 199.5C536.2 196.7 537 192.5 537 190C537 187.5 536.2 183.5 535.3 181C534.4 178.5 533.3 176.3 533 176C532.6 175.7 531.8 174.5 531.1 173.2C530.5 172 528.1 169.7 525.8 168.1C523.4 166.6 518.9 164.5 515.7 163.6C512.6 162.7 509.4 162.1 508.7 162.1C508.1 162.2 504.8 163 501.5 163.9Z" fill="#E55998"/>
<path d="M415.5 375.1C401.7 375.6 388.9 376.4 387 377C385.1 377.5 381.4 378 378.7 378C376.1 378 371.4 378.7 368.3 379.5C365.1 380.3 360.5 382.4 358 384.1C355.5 385.8 352.3 389.1 350.8 391.4C349.3 393.6 347.6 398 347 401C346.2 405.3 346.3 408.6 347.5 416C348.3 421.2 349.5 427.7 350 430.5C350.6 433.2 351.7 438.9 352.4 443C353.2 447.1 354.8 455.7 356 462C357.2 468.3 358.8 476.9 359.5 481C360.3 485.1 361.4 490.7 361.9 493.5C362.5 496.2 363.5 502.1 364.3 506.5C365 510.9 366.8 517 368.1 520C370 524 372 526.5 375.6 529.1C378.3 531 381.7 533.1 383.3 533.8C385.4 534.7 386.3 534.7 387.5 533.7C388.9 532.7 389.1 529.2 389.1 511C389 492.1 389.3 489.2 390.8 487.4C391.7 486.2 393.5 484.7 394.8 484.1C396 483.5 398.5 483 400.3 483C402.6 483.1 404.4 484 406.8 486.5L410 490V537.5C423.6 539.4 429.3 540 431.5 540C433.7 540 436 539.6 436.7 539.2C437.6 538.7 438 527.5 438.2 495.3L438.5 452.1C442.9 448 444.6 447.5 448.6 447.5C453.2 447.5 454.2 447.9 456.4 450.5L459 453.5C459 533.4 459.2 539.1 460.5 539.5C461.3 539.8 466.8 539.5 472.8 538.9C478.7 538.3 484.5 537.7 485.8 537.4L488 537C488 445.5 488.4 418 488.9 416.7C489.3 415.5 491.5 413.7 493.6 412.6C496.1 411.4 498.6 411 500.5 411.4C502.1 411.7 504.6 413.1 506 414.6L508.5 417.2L509 534.5C513.7 533.3 516.9 531.7 519.3 530.1C521.6 528.5 524.6 525.8 526 524C527.4 522.2 529.1 519.1 529.8 517.1C530.5 515.1 531.6 511.2 532.1 508.5C532.7 505.7 533.8 499.7 534.6 495C535.5 490.3 536.5 484.7 537 482.5C537.5 480.3 539 472 540.5 464C541.9 456 543.5 447.2 544.1 444.5C544.6 441.7 545.7 436.1 546.4 432C547.2 427.9 548.5 420.4 549.4 415.5C550.8 407.8 550.9 405.6 549.8 400.7C549.1 397.6 548.2 395 547.8 395C547.3 395 547 394.3 547 393.5C547 392.7 545.1 390 542.7 387.6C540.4 385.2 537.6 382.8 536.5 382.2C535.4 381.6 532.5 380.6 530 380C527.5 379.4 521.9 378.4 517.5 378C513.1 377.5 503.6 376.6 496.5 376.1C489.4 375.6 473.8 375 462 374.7C450.2 374.5 429.2 374.7 415.5 375.1Z" fill="#E6E6E6"/>
</svg>
